<svg width="680" height="314" viewBox="0 0 680 314" fill="none" xmlns="http://www.w3.org/2000/svg">
<path d="M15.0557 67.3067H60.2229L107.928 183.693H109.958L157.662 67.3067H202.83V240.532H167.305V127.783H165.867L121.038 239.686H96.8473L52.0184 127.36H50.5805V240.532H15.0557V67.3067ZM259.651 291.113C254.52 291.113 250.121 290.69 246.456 289.844C242.847 288.998 240.028 288.096 237.998 287.137L246.118 259.225C252.433 261.311 257.79 261.819 262.189 260.748C266.587 259.733 270.055 256.321 272.592 250.513L274.961 244.254L228.355 110.613H266.248L293.146 206.022H294.499L321.65 110.613H359.797L309.047 255.419C306.623 262.411 303.211 268.557 298.813 273.858C294.471 279.215 289.058 283.416 282.573 286.461C276.088 289.562 268.448 291.113 259.651 291.113Z" fill="white"/>
<rect x="374.291" y="8.99978" width="296.494" height="296.494" rx="61.1616" fill="url(#paint0_linear_854_5273)" stroke="white" stroke-width="17.0132"/>
<path d="M517.267 157.013C517.267 167.851 515.566 177.384 512.165 185.611C508.763 193.798 504.056 200.562 498.044 205.902L515.428 227.736H491.458L481.669 215.691C475.063 218.183 467.963 219.429 460.369 219.429C452.26 219.429 444.745 218.045 437.823 215.276C430.901 212.468 424.869 208.394 419.727 203.054C414.625 197.714 410.63 191.188 407.742 183.475C404.895 175.722 403.471 166.902 403.471 157.013C403.471 147.085 404.895 138.265 407.742 130.552C410.63 122.799 414.625 116.253 419.727 110.913C424.869 105.574 430.901 101.519 437.823 98.7505C444.745 95.9817 452.26 94.5973 460.369 94.5973C468.438 94.5973 475.914 95.9817 482.796 98.7505C489.718 101.519 495.75 105.574 500.892 110.913C506.034 116.253 510.049 122.799 512.936 130.552C515.823 138.265 517.267 147.085 517.267 157.013ZM451.469 175.525H473.303L482.321 187.094C485.169 183.732 487.364 179.539 488.907 174.516C490.45 169.453 491.221 163.619 491.221 157.013C491.221 148.43 489.935 141.192 487.364 135.298C484.833 129.405 481.253 124.935 476.625 121.89C471.998 118.844 466.579 117.321 460.369 117.321C454.159 117.321 448.74 118.844 444.112 121.89C439.484 124.935 435.885 129.405 433.314 135.298C430.783 141.192 429.517 148.43 429.517 157.013C429.517 165.597 430.783 172.835 433.314 178.728C435.885 184.622 439.484 189.092 444.112 192.137C448.74 195.183 454.159 196.706 460.369 196.706C462.703 196.706 464.918 196.488 467.014 196.053L451.469 175.525ZM554.514 217.768H526.985L568.931 96.2586H602.038L643.926 217.768H616.396L607.378 190.061H563.532L554.514 217.768ZM570.059 170.007H600.911L585.959 124.025H585.01L570.059 170.007Z" fill="white"/>
<defs>
<linearGradient id="paint0_linear_854_5273" x1="522.538" y1="0.493164" x2="522.538" y2="314" gradientUnits="userSpaceOnUse">
<stop stop-color="#00FFFF"/>
<stop offset="0.5" stop-color="#8080CC"/>
<stop offset="1" stop-color="#8000FF"/>
</linearGradient>
</defs>
</svg>
